<svg xmlns="http://www.w3.org/2000/svg" width="299.55" height="191.2" viewBox="0 0 299.55 191.2"><defs><style>.a{fill:#fff;}</style></defs><title>behance</title><path class="a" d="M0,54.58c28.66-.07,57.32,0,86,0a104.82,104.82,0,0,1,29.76,3.61c9.79,2.9,19.18,8.77,24.26,17.88,6.25,11,7,24.56,4.5,36.78-2.66,12.5-12.6,22-23.87,27.27,9.64,2.85,18.86,8.23,24.66,16.62,8.27,11.57,10.4,26.54,8.45,40.38a47.59,47.59,0,0,1-19.94,32.64C121.1,238.64,105.33,242,90,242.27q-45,0-90,0V54.58M40.44,86.43c.13,14.65.09,29.32,0,44,14.48,0,29,.08,43.45,0,8.59-.33,18.48-4.29,21.29-13.16,2.34-8,2.25-18.14-4.22-24.28-5.62-5.17-13.63-6.31-21-6.52-13.19,0-26.38-.05-39.57,0m0,72.08c.11,17.29.08,34.58,0,51.87q21.77,0,43.53,0c7-.18,14.4-1,20.46-4.84a20.36,20.36,0,0,0,9.33-16.47c.46-7.67-.13-16.27-5.55-22.24-5.93-6.22-14.91-8.28-23.23-8.32Q62.73,158.49,40.45,158.51Z" transform="translate(0 -54.54)"/><path class="a" d="M195.7,67.08q37.32.07,74.63,0c0,6.14,0,12.28,0,18.41q-37.35,0-74.7,0C195.73,79.35,195.68,73.22,195.7,67.08Z" transform="translate(0 -54.54)"/><path class="a" d="M217.09,104.58a76,76,0,0,1,32.1-.68A58.47,58.47,0,0,1,286.85,130c10.26,15.6,13.66,34.88,12.48,53.29q-48.12,0-96.24,0c.12,9,2.27,18.4,8.15,25.41,6.37,7.21,16.49,9.48,25.76,9.14,11.52,0,23.7-6.63,28-17.65,10.68,0,21.37-.11,32.05.07-3.75,11.07-9,22-17.67,30.09-11.66,10.7-27.8,15.29-43.38,15.37-15.2.35-30.79-3.5-43.13-12.63C179.57,223.35,171.18,208,168,192c-3.37-17.88-1.73-37,6.5-53.42a65.68,65.68,0,0,1,42.55-34M214,136.83c-7.1,5.37-10.26,14.33-11,22.92q29.92.08,59.84,0c-.82-7.86-3.23-15.94-8.74-21.82-3.87-4.27-9.6-6.26-15.16-7C230.35,129.81,220.86,131,214,136.83Z" transform="translate(0 -54.54)"/></svg>