<svg xmlns="http://www.w3.org/2000/svg" width="320" height="319.95" viewBox="0 0 320 319.95"><defs><style>.a{fill:#fff;}</style></defs><title>codepen</title><path class="a" d="M157.4,1.54a14,14,0,0,1,11.21,1.8Q241,51.51,313.28,99.75A14.81,14.81,0,0,1,321.1,113q0,48,0,96.07a14.28,14.28,0,0,1-6.55,12.44q-72.93,48.63-145.89,97.25a13.71,13.71,0,0,1-15.29,0Q80.42,270.07,7.5,221.44A13.62,13.62,0,0,1,1.13,210q0-49,0-98A13.66,13.66,0,0,1,7.5,100.66Q80.08,52.24,152.69,3.85a16.26,16.26,0,0,1,4.71-2.31M39.61,112.24c16,10.9,32.08,21.55,48.16,32.28q29.69-20,59.49-39.8c.11-21.42,0-42.83.05-64.25Q93.49,76.39,39.61,112.24M174.78,40.46c.05,21.41-.06,42.83.05,64.24q29.8,19.82,59.5,39.8c16.12-10.66,32.17-21.45,48.21-32.22Q228.6,76.46,174.78,40.46M112.38,161Q136.73,177.3,161,193.6q24.33-16.29,48.68-32.56Q185.33,144.86,161,128.5,136.76,144.83,112.38,161m146.71,0q17.25,11.48,34.43,23,0-23,0-46.06-17.16,11.58-34.43,23M28.57,138q0,23,0,46.07Q45.76,172.5,63,161q-17.28-11.42-34.45-23m11,71.82q53.92,35.83,107.73,71.82c0-21.35-.09-42.7.05-64-19.79-13.47-39.79-26.63-59.64-40C71.67,188.34,55.58,199,39.58,209.83m135.13,7.86c.16,21.32,0,42.64.06,64q53.85-36,107.77-71.82c-16-10.79-32.09-21.58-48.22-32.22C214.52,191.08,194.43,204.11,174.71,217.69Z" transform="translate(-1.11 -1.09)"/></svg>