<svg xmlns="http://www.w3.org/2000/svg" width="185.16" height="300" viewBox="0 0 185.16 300"><defs><style>.a{fill:#333;}</style></defs><title>deviantart</title><path class="a" d="M188.53,0h53.79c.34,18.08,0,36.18.18,54.26-15.82,29.63-31.12,59.54-46.77,89.27-2.65,5.46-5.88,10.7-8.26,16.26,1.44,1.86,3,3.65,4.5,5.44,16.81,0,33.63.08,50.44-.05q.09,37.32,0,74.64c-30.52-.14-61,0-91.55-.08-2.84,1.82-5.7,3.64-8.36,5.72Q129.75,269.78,117,294.07c-1.9,2.06-3.89,4-6,5.93H57.57c-.43-18.18-.1-36.4-.17-54.59Q84,194.54,110.54,143.65c.55-1.17,1.4-2.26,1.5-3.58-1.47-1.73-2.88-3.51-4.32-5.27-16.76-.05-33.53-.11-50.29,0q-.14-37.33,0-74.67c30.49.12,61,.06,91.5,0,2.66-1.82,5.38-3.57,8-5.48C165.63,38.48,174,22,182.69,5.75A70.41,70.41,0,0,1,188.53,0Z" transform="translate(-57.34)"/></svg>