<svg xmlns="http://www.w3.org/2000/svg" width="299.63" height="299.56" viewBox="0 0 299.63 299.56"><defs><style>.a{fill:#fff;}</style></defs><title>dribbble</title><path class="a" d="M103.08,7.81A149.56,149.56,0,1,1,0,152.59v-5.15A150.15,150.15,0,0,1,103.08,7.81m16.89,18a729.26,729.26,0,0,1,47.63,75c25.51-9.74,50.11-24.38,67.07-46.18A127.67,127.67,0,0,0,120,25.83M68,52a128.45,128.45,0,0,0-43.41,72,476,476,0,0,0,118.28-15.58,797.35,797.35,0,0,0-47.5-74A134.77,134.77,0,0,0,68,52m109.44,67.81c4,8.27,7.77,16.64,11.25,25.14,29.66-3.52,59.8-1.45,89.08,4.1a127.77,127.77,0,0,0-28.89-79.66c-18.57,23-44.4,39.13-71.44,50.42M22,146.4a127.9,127.9,0,0,0,32.83,89.44,196.74,196.74,0,0,1,20.94-28.07c23.48-26.64,53.73-48,88.1-57.89-3.33-7.29-6.69-14.58-10.37-21.71C110.83,140.65,66.33,146.42,22,146.4m174.52,18.73a566,566,0,0,1,24.86,91.22,128.6,128.6,0,0,0,54.83-85.74,186.68,186.68,0,0,0-79.69-5.48M96.15,218.07C86.51,228,77.7,238.91,71.31,251.24a127.8,127.8,0,0,0,128.51,16.84,541.09,541.09,0,0,0-27.28-97C144,180.81,117.37,196.55,96.15,218.07Z" transform="translate(0 -0.32)"/></svg>