<svg xmlns="http://www.w3.org/2000/svg" width="300" height="299.52" viewBox="0 0 300 299.52"><defs><style>.a{fill:#fff;}</style></defs><title>ello</title><path class="a" d="M143.52,0h14.62c22.2,1.56,44.22,7.34,63.78,18.09a150.84,150.84,0,0,1,68.47,77.56A153.9,153.9,0,0,1,300,136.46v26.95A150.45,150.45,0,0,1,26.82,235.14,149.1,149.1,0,0,1,0,152.72v-5.45A149.56,149.56,0,0,1,76.34,19.33C96.8,7.66,120.05,1.32,143.52,0M227,160.07a8.43,8.43,0,0,0-6.23,6c-3.86,14.14-11.47,27.42-22.51,37.16a74.41,74.41,0,0,1-50.32,18.52,71,71,0,0,1-44.75-16C91.55,196.19,83.64,182.52,80,168a8.67,8.67,0,0,0-7-7c-5.65-1.28-11.31,4.58-9.71,10.21,4.34,18.09,14.1,35,28.38,47.07A88.14,88.14,0,0,0,147,238.71a92,92,0,0,0,57.3-18.48c16.37-12.33,27.86-30.57,33-50.33C238.75,164.14,232.65,158.43,227,160.07Z"/></svg>