<svg xmlns="http://www.w3.org/2000/svg" width="216.72" height="299.93" viewBox="0 0 216.72 299.93"><defs><style>.a{fill:#333;}</style></defs><title>foursquare</title><path class="a" d="M66.9,0H234.64c6.52.62,13.68,1.91,18.3,7,3.81,4.08,4.33,9.84,5.2,15.09a175.73,175.73,0,0,1-3.36,20.66c-10,48.31-19.81,96.67-30.2,144.9-1.14,5.05-3.22,10.24-7.44,13.51s-9.85,4.13-15.11,4.17c-15.67,0-31.34-.06-47,0-4.48-.17-7.19,3.9-9.89,6.83-24.39,27.26-49,54.32-73.49,81.5a18.38,18.38,0,0,1-22.38,4.15c-5.5-3.1-7.83-9.72-7.84-15.74q.06-129,0-258.07A25.4,25.4,0,0,1,49.12,7.14C53.91,2.6,60.51.79,66.9,0M78.54,31.53c-3,2.05-3.88,6-3.81,9.4.08,67.56-.07,135.11.07,202.67a17.81,17.81,0,0,0,2.47-2.44q22.82-29.6,45.82-59.06c2.37-2.93,4.51-6.31,8-8,4-2,8.51-1.72,12.82-1.93,15.06-.11,30.12.07,45.18-.08,4.3-.2,7.15-4.23,7.9-8.14,2.54-11.63,4.75-23.33,7.22-35,.48-2.26.84-4.75-.21-6.91a8.56,8.56,0,0,0-8.08-4.36q-26.5,0-53,0c-7.06-.08-12.53-6.91-12.61-13.68,0-4.58-.74-9.65,1.94-13.69,2.43-4,7.19-6,11.73-5.89,20.67,0,41.34,0,62,0,4.57.16,8.26-4.06,8.91-8.35,2.35-11.34,4.75-22.68,7.09-34,1.54-5.58-3.09-11.81-8.88-11.86-42-.08-84.08,0-126.12,0C84.15,30.22,81,29.73,78.54,31.53Z" transform="translate(-41.42)"/></svg>