<svg xmlns="http://www.w3.org/2000/svg" width="299.7" height="299.69" viewBox="0 0 299.7 299.69"><defs><style>.a{fill:#fff;}</style></defs><title>googleplus</title><path class="a" d="M133.18,1.11a150,150,0,1,1-95.4,49.68,149.46,149.46,0,0,1,95.4-49.68m-36.25,90a60.18,60.18,0,1,0,77.24,44.64q-29.85,0-59.68,0,0,12.65,0,25.29c11.26.16,22.52-.07,33.77.12C143,174.39,129.43,184,115,183.58c-16.25.2-31.31-12.4-34.21-28.35a35.18,35.18,0,0,1,57.35-33.6q9-8.79,17.95-17.59A60.74,60.74,0,0,0,96.93,91.1m111.29,25.55c.13,7,0,14,.09,21-7-.05-13.91,0-20.87,0,0,5.21,0,10.42,0,15.63,6.95-.06,13.9,0,20.85-.06-.06,6.91,0,13.82-.06,20.73q7.77.06,15.55,0c-.07-6.91,0-13.81-.05-20.71,7,.05,14,0,21,0-.05-5.21-.08-10.42,0-15.63-7,0-14,0-21,0,.09-7,0-14,.09-20.94C218.62,116.67,213.42,116.68,208.22,116.65Z" transform="translate(-0.15 -0.16)"/></svg>