<svg xmlns="http://www.w3.org/2000/svg" width="200" height="200" viewBox="0 0 200 200"><defs><style>.a{fill:#fff;}</style></defs><title>instagram</title><path class="a" d="M78.28,0h43.07c14.2.54,28.87-.34,42.45,4.59a51.1,51.1,0,0,1,31.73,31.93c4.76,13.37,3.93,27.78,4.47,41.74v43.13c-.54,14.07.32,28.6-4.47,42.09a51.1,51.1,0,0,1-31.73,31.93c-13.46,4.9-28,4-42.07,4.59H78.64c-14.18-.54-28.85.34-42.42-4.59a51,51,0,0,1-31.76-32C-.29,150.08.54,135.68,0,121.73V78.62c.54-14.05-.32-28.56,4.45-42a51.1,51.1,0,0,1,31.81-32c13.44-4.88,28-4,42-4.57m-4,18.22c-13.13.44-27.35-.39-39,6.78C25.94,30.72,20.6,41.2,19.39,51.84c-1.55,13-1,26.11-1.27,39.16.1,17.33-.25,34.67.69,52,.67,9.9,3.4,20.33,10.75,27.43,7.1,7.39,17.55,10.08,27.46,10.78,17,.93,34,.59,50.92.7,12.61-.18,25.26.16,37.83-1,9.69-.9,19.66-4.41,26.1-12,7.76-8.61,9.37-20.75,9.6-31.89.66-21,.36-42,.31-63-.39-10.78.15-21.92-3.63-32.21a32.85,32.85,0,0,0-18.67-19.42c-9.33-3.85-19.6-3.71-29.51-4C111.4,18,92.82,18.1,74.25,18.22Z"/><path class="a" d="M148.44,35.62c6.34-3.12,14.68.79,16.51,7.57C167.21,50,162.1,57.84,155,58.58c-6.44,1.11-13-4-13.63-10.5A12.11,12.11,0,0,1,148.44,35.62Z"/><path class="a" d="M89.44,49.69a51.4,51.4,0,1,1-31.69,21,51.45,51.45,0,0,1,31.69-21m2.09,18.13a33.76,33.76,0,0,0-13,6.77c-11.94,9.75-15.4,28.11-7.66,41.47,7.56,14.33,26.33,21.23,41.31,14.89,16-5.9,25.23-25.27,19.41-41.39C126.59,73.32,107.92,63,91.53,67.82Z"/></svg>