<svg xmlns="http://www.w3.org/2000/svg" width="254.97" height="141.54" viewBox="0 0 254.97 141.54"><defs><style>.a{fill:#fff;}</style></defs><title>last-fm</title><path class="a" d="M15.68,78.67C25.59,66.09,41.38,59.45,57,57.9c17.49-.87,36.25-.14,51.51,9.47,11.35,7,19.18,18.54,24.09,30.76,5,12.82,9,26,13.55,38.94,2.5,7,5.19,14.15,9.52,20.3,7.6,10.52,20.23,17.52,33.31,17.43,10.32.34,21.55,1.18,30.85-4.17,4.71-2.64,6.4-8.59,5.2-13.64-1-6.05-6.43-10.1-11.83-12.15-12.75-4.53-26.4-6-39-10.93-8.06-3.7-16-9.45-19.1-18.11a45.7,45.7,0,0,1,1.74-37c4.42-7,10.78-13.19,18.62-16.2,11.18-4.63,23.53-5.5,35.5-4.88,11.79.73,24.27,3.76,32.87,12.4,6.67,6.24,9.49,15.34,10.67,24.16-9.48,2.39-19.41,2.31-29,4.14-1.67-4.65-2.5-10.09-6.58-13.39-6.61-4.57-15.25-5.2-23-3.89-6.28,1-12.58,5.27-14,11.77-.35,4.76,0,10.19,3.42,13.88,2.23,2.49,5.5,3.59,8.57,4.64,12,3.87,24.76,5.28,36.55,9.94,9.41,3.84,18.16,10.72,21.92,20.43,4,10.34,4.33,22.3.1,32.62-2.9,7.24-8.8,13-15.63,16.57-9.48,5-20.23,7.09-30.84,8-10.31,0-20.68.47-30.93-.87-15.27-2.34-30.57-8.42-41.24-19.94a68.79,68.79,0,0,1-13.92-23c-6.26-16.16-10.48-33-17.12-49.06-3-7.28-7.41-14.2-13.94-18.78-8.31-5.83-19.13-7.19-28.95-5.38-9.47,1.82-17.61,8.44-22,16.93-5.51,10.06-6.74,21.78-6.41,33.07,0,10.48,2.58,21.17,8.64,29.83a31.38,31.38,0,0,0,23.7,13.3c15,.72,29.08-6.77,39.9-16.66,3.05,8.54,6.33,17,9.09,25.63-10.68,8.64-24.22,13-37.71,14.59-16.11,1.35-33.29.29-47.49-8.23-12.26-7.19-20.33-20-24-33.48-3-9.66-3.27-19.84-3.1-29.86C.78,110,5,92.29,15.68,78.67Z" transform="translate(-0.54 -57.56)"/></svg>