<svg xmlns="http://www.w3.org/2000/svg" width="328.82" height="396.64" viewBox="0 0 328.82 396.64"><defs><style>.a{fill:#333;}</style></defs><title>lattes</title><path class="a" d="M142.78,2.48c20.84-.68,41.89,0,62.31,4.59a320,320,0,0,1,72.18,24.72c3.86,1.9,7.94,3.37,11.7,5.48a7.45,7.45,0,0,1,3.78,6.85c-3.86.71-7.73,1.91-11.69,1.39-15.55-1.87-31.06-4.33-46.73-4.95-17.43-.53-35.4.53-51.7,7.27-6.39,2.78-12.89,5.88-17.74,11-10.12,10-15.32,24.1-16.44,38.1-.23,8.4-.45,16.82,0,25.21,1.86,20.38,6.81,40.34,12.78,59.87,1.84,5.61,3.58,11.27,5.94,16.69.12.53.37,1.59.49,2.12,3.81,8.57,7.13,17.36,10.36,26.17a42,42,0,0,1,1.93,6.51,49.23,49.23,0,0,1-7.08-.32c-19.33-3.4-38.54-7.48-58-10.4q-30.79-5.49-61.58-10.9c-2.29-.46-4.76-.43-6.82-1.66-1.75-2.48-1.9-5.65-2.58-8.52-1-6-2.87-11.8-3.31-17.86a14.88,14.88,0,0,1-2,.88l1.65-1.24c-1.37-7.46-2.31-15-3.38-22.49-.75-13.31-2.14-26.67-.62-40,.24-12.21,2.6-24.28,5.72-36,3.86-13.76,10.7-26.53,18.84-38.21A101.4,101.4,0,0,1,114.24,8.51C123.5,5.44,133.18,4,142.78,2.48Z" transform="translate(-35.59 -2.25)"/><path class="a" d="M169.21,104.21c5.33-17.06,23.35-28.35,40.88-28,19-.9,37.47,6.9,52.29,18.34,13.8,10.68,25.21,25.73,27.95,43.31a46.56,46.56,0,0,1-5.39,27.32c-7.19,11.81-20.53,18.33-33.86,20.24-4.67.28-9.38,1.27-14,.28a85.37,85.37,0,0,1-53.4-28.38c-6.11-7.12-11.32-15.18-13.86-24.29C167.1,123.73,165.9,113.53,169.21,104.21Z" transform="translate(-35.59 -2.25)"/><path class="a" d="M301.51,87.55l2.51-.21a23.31,23.31,0,0,1,5.12,3.44q6.76,6.75,12.94,14.05a164.39,164.39,0,0,1,33.12,51A151,151,0,0,1,364.41,197c-.17,6.74.13,13.52-.38,20.24-1.42,6.29-1.76,12.86-4.32,18.84a180.17,180.17,0,0,1-33.88,62.55c-20.61,24.05-46.59,43.1-74.71,57.47-22.54,12.11-46.73,20.74-71.18,28.09a522.38,522.38,0,0,1-68.1,14.72c-2.74-7.75-5.83-15.37-8.65-23.09-14.78-38-28.8-76.23-43.47-114.23-5.16-13.81-10.5-27.55-15.53-41.4a148.52,148.52,0,0,1,17.09,4.59c7,1.41,13.87,3.25,20.72,5.17,24.6,5.65,49.7,9.84,75,9.81,5.68,0,11.33,1.18,17,.52a154,154,0,0,1,15.92-.81l-.6-.57c8.32-.1,16.54-1.46,24.73-2.79,1.68-.4,3.37-.74,5.07-1.07,20.26-4.73,40.39-11.38,57.87-22.92,15.62-10,28.67-24.64,35.09-42.21,4.39-13.49,4-28.15.56-41.81-2.31-10-6.67-19.43-10-29.16C301.34,95.28,301.44,91.36,301.51,87.55Z" transform="translate(-35.59 -2.25)"/></svg>