<svg xmlns="http://www.w3.org/2000/svg" width="220.02" height="219" viewBox="0 0 220.02 219"><defs><style>.a{fill:#fff;}</style></defs><title>linkedin</title><path class="a" d="M14.67,0H204.92C213.2.55,220,8,220,16.27V201.74c.46,8.55-6.31,16.54-14.86,17.26H14.88C7.23,218.52.46,212.06,0,204.34V14.71C.41,7,7.09.62,14.67,0M44.41,30.57c-9.39,2-16.11,12-14.25,21.51C31.48,61.4,40.62,68.73,50,67.82c10.7-.19,19.44-11,17.62-21.51C66.43,35.54,54.86,27.78,44.41,30.57m72.44,66.15c.06-4.9.1-9.8,0-14.69-10.42,0-20.85.17-31.26-.09q-.09,52.41,0,104.8c10.87-.17,21.75-.1,32.62,0q0-25.35,0-50.71c.08-7.46.23-15.67,4.95-21.88,4.08-5.27,11.34-6.54,17.62-5.79a13.59,13.59,0,0,1,10.65,7.09c3.14,6,3.1,13,3.14,19.53,0,17.27,0,34.53,0,51.79,10.89-.16,21.78-.11,32.67,0q0-30.33,0-60.65c-.24-9.35-1-18.95-4.71-27.64a29,29,0,0,0-14-15c-7.6-3.65-16.27-4.39-24.58-3.81a34.83,34.83,0,0,0-27.18,17.09M32.5,81.94q-.09,52.41,0,104.82c10.94-.21,21.87,0,32.81-.09-.06-34.91,0-69.83,0-104.74C54.35,81.94,43.43,81.91,32.5,81.94Z"/></svg>