<svg xmlns="http://www.w3.org/2000/svg" width="300" height="258.44" viewBox="0 0 300 258.44"><defs><style>.a{fill:#fff;}</style></defs><title>medium</title><path class="a" d="M197.84,22.89c.91-1.87,3.3-3.15,5.22-1.89q47,23.4,93.94,47a2.56,2.56,0,0,1,1.25,4.24Q251.71,148,205.16,223.76q-32.67-53.22-65.36-106.44Q168.85,70.13,197.84,22.89Z" transform="translate(0 -20.5)"/><path class="a" d="M0,24.9C.27,23,1.91,21.19,4,21.67A54.56,54.56,0,0,1,11.14,25Q54.46,46.68,97.76,68.37A3.18,3.18,0,0,1,100,71.95Q100,171.49,100,271c-.05,2.43,0,5.37-2.15,7s-4.7.87-6.75-.21L6.6,235.51A11.51,11.51,0,0,1,0,226.38Z" transform="translate(0 -20.5)"/><path class="a" d="M108.83,83.88Q154.43,158,200,232.19c-30.39-15.23-60.83-30.38-91.17-45.7C108.88,152.28,108.79,118.08,108.83,83.88Z" transform="translate(0 -20.5)"/><path class="a" d="M207.95,236.13Q254,161.26,300,86.39V273c-.28,1.94-.69,4.27-2.61,5.29-2.18,1.27-4.71.27-6.75-.75Q249.31,256.82,207.95,236.13Z" transform="translate(0 -20.5)"/></svg>