<svg xmlns="http://www.w3.org/2000/svg" width="300" height="183.75" viewBox="0 0 300 183.75"><defs><style>.a{fill:#333;}</style></defs><title>myspace</title><path class="a" d="M239.52,58.33c4.85-.37,9.74-.12,14.61-.14a51,51,0,0,1,27.25,13.38c7.78,8.27,13.16,19,13.83,30.42,1.31,4-.47,8-.42,12.06-2.18,11.9-8.72,23.15-18.59,30.27a49.53,49.53,0,0,1-52.15,3.59c-11.9-6.79-21.24-18.56-23.83-32.16-3.24-15,1.12-31.58,11.86-42.63C219.14,65.21,229.21,60.36,239.52,58.33Z" transform="translate(0 -58.13)"/><path class="a" d="M134.58,76.43c19.63-2.67,40.16,9.76,46.32,28.67,2.85,8.86,3.36,18.48.26,27.34-5.49,19.64-26.92,32.95-47,29.68-15.58-1.63-29.59-12.88-34.94-27.53-6.07-15.55-2.08-34.66,10.32-46C116.06,81.64,125.31,77.79,134.58,76.43Z" transform="translate(0 -58.13)"/><path class="a" d="M36,93.15a40,40,0,0,1,24.84,4c12.18,6.52,21,19.78,20.46,33.83.6,10.88-4.32,21.7-12.23,29.05-6.43,6.24-15.26,9.65-24.1,10.41-11.46.57-23.43-3.71-31.15-12.38-9.39-9.65-12.58-24.41-9-37.24C8.64,106.61,21.53,95.4,36,93.15Z" transform="translate(0 -58.13)"/><path class="a" d="M197.24,201.37c5.95-19.22,23.35-35,43.6-37.22,6.62-.13,13.38-.59,19.81,1.34,21.09,5.49,36.59,25.12,39.35,46.42V238.1c-.55,1.25-1.11,2.51-1.67,3.76q-50.83,0-101.66,0c-1.12-2.16-2.49-4.37-2.43-6.89C194.28,223.74,193.54,212.19,197.24,201.37Z" transform="translate(0 -58.13)"/><path class="a" d="M114.82,178.84c7.15-4.78,15.66-7,24.16-7.6,11.73.2,23.77,4.17,32.23,12.56a48,48,0,0,1,14.56,24.27c2.46,8.75,1.94,17.95,2,27,.21,2.54-1.47,4.59-2.42,6.81q-45.74,0-91.48,0a17.61,17.61,0,0,0-1.74-4.32c.21-7.5-.64-15.08.63-22.52C94,200.37,102.78,187,114.82,178.84Z" transform="translate(0 -58.13)"/><path class="a" d="M31.81,179.81c11.6-3.41,24.56-.78,34.43,6,8.29,6.28,14.85,15,17.6,25.13,1.88,8.47,2,17.18,1.71,25.81a30.51,30.51,0,0,1-1.45,5.1q-41.68-.07-83.35,0L0,239.08V215.43C3.09,199.05,15.3,183.9,31.81,179.81Z" transform="translate(0 -58.13)"/></svg>