<svg xmlns="http://www.w3.org/2000/svg" width="232.96" height="299.44" viewBox="0 0 232.96 299.44"><defs><style>.a{fill:#fff;}</style></defs><title>periscope</title><path class="a" d="M81,25.09A113.73,113.73,0,0,1,158,.78c25.83,1.5,50.67,13.11,69.2,31a126.15,126.15,0,0,1,37.92,76.31,22.67,22.67,0,0,0,1,5,84.06,84.06,0,0,1,0,18.76c-1.63,6.13-1.95,12.54-3.76,18.64-7.4,27.63-21.4,53-37.28,76.59C211.79,246.41,197,264.72,180,280.88c-8.4,7.43-17,15.52-28,18.67l-.21.45h-1c-3.55-2.17-7.94-2.8-11.39-5.3-16.94-10.59-30.67-25.48-43.62-40.51-21.31-25.64-39.93-53.92-52.19-85-5.69-14.74-9.68-30.31-9.9-46.17A145.72,145.72,0,0,1,36.42,97.9C42.17,69.42,58.08,43,81,25.09m52.09,25.22c7,4.75,12.61,12,13.61,20.63,3,15.59-9.75,32.15-25.74,32.65-11.56,1-23.08-6.38-27.37-17.07-.77-1.75-1-3.82-2.39-5.21-11.33,18.91-14.65,43.14-6.4,63.85,6.46,17,20.07,30.85,36.51,38.37,17.68,8,38.9,9,56.72.9a71.42,71.42,0,0,0,37.06-39.29c5.41-14,5.74-29.71,1.87-44.16-5.26-20.56-19.89-38.85-39.41-47.48C163.74,47.09,147.78,46.67,133.13,50.31Z" transform="translate(-33.68 -0.56)"/></svg>