<svg xmlns="http://www.w3.org/2000/svg" width="299.69" height="251.24" viewBox="0 0 299.69 251.24"><defs><style>.a{fill:#333;}</style></defs><title>reddit</title><path class="a" d="M166.81,29.78c.64-2.83,3.2-5.34,6.17-5.36,20.5,5.22,41.19,9.68,61.72,14.74a24.75,24.75,0,0,1,12-11.24A23.23,23.23,0,1,1,256,72.58c-11.95.31-22.78-9.76-23.46-21.68-18.56-4.4-37.14-8.68-55.68-13.15C170.1,59,163.5,80.32,156.6,101.52c31.95,1.15,64.43,9.43,90.88,27.89,7-8.55,18.78-12.84,29.59-10.22,13,2.78,23.29,15.39,22.81,28.81.34,11.92-7.72,23-18.61,27.44,4,16,0,33.3-9,46.91-11.56,17.59-29.54,30-48.57,38.35a177.74,177.74,0,0,1-51.47,13.47,175,175,0,0,1-45.27,0c-20.25-2.24-40.28-7.56-58.55-16.65-17-8.53-32.87-20.58-43-37-8.37-13.44-11.73-30.23-7.73-45.68A30.2,30.2,0,0,1,3.82,162.08a29.44,29.44,0,0,1,48.29-33.19c26.88-18.44,59.75-26.53,92-27.45q11.34-35.83,22.67-71.66M97.37,150.56c-9,2.36-15.91,11.11-15.84,20.46A21.51,21.51,0,0,0,92,190a21.63,21.63,0,0,0,32.74-17.88,21.68,21.68,0,0,0-27.39-21.53m94,0C181,153.2,173.7,164.42,175.75,175c1.49,10.09,11,18.34,21.29,18,9,.33,17.58-5.91,20.47-14.37a21.67,21.67,0,0,0-26.17-28M101.3,223c-3.74,1.74-4.5,7.35-1.31,10,11.27,11.14,27.72,14.42,43,15.27,17.16.56,35.53-.48,50.46-9.87,3.05-2.15,6.39-4.31,8.31-7.6,2.05-4.14-2.28-9.38-6.7-8.29-2.31.49-3.81,2.44-5.59,3.81-6.49,5.31-14.84,7.65-23,8.91a121.71,121.71,0,0,1-33.51-.11c-8.84-1.39-17.87-4.3-24.45-10.65A6,6,0,0,0,101.3,223Z" transform="translate(-0.2 -24.42)"/></svg>