<svg xmlns="http://www.w3.org/2000/svg" width="219.74" height="219.79" viewBox="0 0 219.74 219.79"><defs><style>.a{fill:#fff;}</style></defs><title>skype</title><path class="a" d="M34.16,6.4A62.53,62.53,0,0,1,83.32,4c3.73,1,6.83,4.36,10.85,3.78a105.88,105.88,0,0,1,31-.08c33.14,4.55,63.05,26.62,77.66,56.64a103.27,103.27,0,0,1,9,63.57c7.2,12.32,9.37,27.1,7.21,41.1a61.42,61.42,0,0,1-28.94,42.15c-18.54,11.45-43.39,11.65-62.19.66-32.56,6-67.86-4.94-91-28.75-23.81-23.07-34.8-58.34-28.8-90.88C.62,79.24-1.51,63.6,1.29,49A61.6,61.6,0,0,1,34.16,6.4M93.68,44.91a57.7,57.7,0,0,0-18.36,6.38C66.83,56,60.2,64.27,58.46,73.91c-1.73,9.19-1,19.36,4.31,27.34,5,7.34,13.18,11.71,21.46,14.33,11.17,3.07,22.44,5.78,33.68,8.59,4.4,1.1,9.09,2.21,12.54,5.36,3.14,3.19,4.79,8.19,3,12.47-1.91,6-7.47,10.1-13.28,12a36.44,36.44,0,0,1-26.07-2.09c-6.46-3.39-10.18-9.88-14.71-15.28-4.93-6.24-15.88-6.13-20.5.43-3.39,4.32-2.42,10.41-.36,15.11,4.51,9.72,14,16.1,23.79,19.71,14.93,5.19,31.3,5.7,46.73,2.56,10.16-2.32,20.26-7.23,26.68-15.69,7.65-9.67,9.41-23.29,5.68-34.9-2.43-8-8.61-14.42-15.84-18.39-9-5.2-19.5-6.45-29.45-8.85-8-2-16.44-3.06-23.89-6.84-4.47-2.18-7.71-7.46-6-12.45,1.43-6.44,7.75-10.42,14-11.2,10.07-1.62,21.7,0,29,7.74,3.84,3.5,6.76,8.47,12,10.07,5.49,1.38,12.14-.49,15.23-5.46,1.78-2.7,1.38-6.15.94-9.18-1.92-7-7.55-12.33-13.66-15.89C128.81,44.43,110.63,41.86,93.68,44.91Z" transform="translate(-0.11 -0.06)"/></svg>