<svg xmlns="http://www.w3.org/2000/svg" width="299.33" height="294.85" viewBox="0 0 299.33 294.85"><defs><style>.a{fill:#fff;}</style></defs><title>slideshare</title><path class="a" d="M21.29,10.28A25.36,25.36,0,0,1,39,2.65q111,0,222,0a25.28,25.28,0,0,1,17.74,7.68c5.72,6,8.12,14.52,7.92,22.67-.1,32.2.15,64.41-.13,96.62,2-1.32,3.91-3.22,6.47-3,3.62-.52,6.84,2.93,6.69,6.45-.38,4.4-2.44,8.41-4.39,12.29-11,20.84-29.49,36.91-50.18,47.68a135.56,135.56,0,0,1,6.16,35c.83,16.31-3.23,33.17-12.95,46.47-8.78,12.21-22.77,20.69-37.82,22.11l-.05.77a76.37,76.37,0,0,1-11.42-.15c-4.19-1.64-8.88-2-12.78-4.41-9.72-5.08-15.26-16-15.62-26.68-.35-11.18,0-22.38-.22-33.57a69.57,69.57,0,0,0,40.33-26.95c1.6-1.53-.07-3.45-1.7-3.92-3.8,1.81-7,4.78-11,6.25a69,69,0,0,1-48.57,1q0,27,0,54.08c0,7.47-1.75,15.18-6.18,21.32a29.36,29.36,0,0,1-17.5,11.45,16,16,0,0,0-4.8,1.48,91.44,91.44,0,0,1-11.47.11l-.07-.77a53.09,53.09,0,0,1-36.19-19.85c-11-13.58-15.44-31.52-14.61-48.75a138.34,138.34,0,0,1,6.15-34.91C32.71,181.34,12.77,163.75,2.4,140.57c-1.62-3.78-3.6-8.94-.14-12.32,3.21-3.21,8.14-1.32,11.14,1.2-.16-32.14,0-64.28-.08-96.41-.12-8.18,2.21-16.75,8-22.76M33.72,23.75c-3.1,3.63-3.28,8.72-3.31,13.27.1,35.76-.15,71.54.13,107.29C45.81,155.79,64.13,163,83,165.94c11.59,1.84,23.37,1.7,35.05,1,7.17-.77,15.21.1,20.68,5.28,7.27,6.85,15.1,13.42,24.48,17.17-.19-5.66-.19-12,3.67-16.55,4.28-5.34,11.66-6.47,18.1-6.1,15.39,1.19,31.09,1,46.12-2.83a116.22,116.22,0,0,0,38.46-17.76q0-55.12,0-110.26c0-4.66-.4-10-4.09-13.34-4-3.42-9.52-3-14.41-3q-103,0-206,0C41,19.65,36.53,20.59,33.72,23.75Z" transform="translate(-0.35 -2.65)"/><path class="a" d="M94.41,82.57c16.4-3.68,34.32,5.59,41.2,20.83a37.33,37.33,0,1,1-70.52,22.69c-2.86-13.9,3.34-29,14.88-37.18A37.45,37.45,0,0,1,94.41,82.57Z" transform="translate(-0.35 -2.65)"/><path class="a" d="M190.37,82.6C206.25,79,223.71,87.47,231,101.94A37,37,0,0,1,232.16,134a37.23,37.23,0,0,1-53.4,17.17c-13-7.59-20.39-23.48-17.64-38.3C163.48,98.07,175.66,85.52,190.37,82.6Z" transform="translate(-0.35 -2.65)"/></svg>