<svg xmlns="http://www.w3.org/2000/svg" width="339.28" height="319.17" viewBox="0 0 339.28 319.17"><defs><style>.a{fill:#fff;}</style></defs><title>snapchat</title><path class="a" d="M127.4,18.49c11.76-5.5,24.69-7.57,37.51-8.77,25-.83,51.25,6.09,70.1,23.23,14.35,13.3,25.55,31.26,27.06,51.13,1.74,19,.16,38.06-1,57,6.27,2.72,13.07.12,18.94-2.41a19.67,19.67,0,0,1,22.61,4.71,10.67,10.67,0,0,1,1.22,12.51c-3,4.72-8,7.57-12.93,9.85-8.27,3.76-18.2,4.71-24.85,11.42-3.76,3.93-2.72,9.84-.51,14.27,8.85,19.33,22.8,36.74,41.05,47.9A75.44,75.44,0,0,0,333,249.3c3.74.21,7,3.83,6.52,7.63-.11,5.15-4.58,8.76-8.72,11.09-11.26,6.11-24.15,8-36.56,10.39-2.67,5.56-2.6,12.06-5.12,17.7a6.75,6.75,0,0,1-5.11,3.63c-6.93.76-13.59-1.82-20.44-2.22-7.71-.49-15.57-.53-23.13,1.27-9.33,2.44-16.85,8.78-24.69,14.06-9.29,6.63-19.42,12.55-30.72,14.84-6.24,1.51-12.68,1-19,1.12-10.93.16-21.59-3.53-31-8.92-9.64-5.47-18-12.87-27.8-18.11-8-4.29-17.35-4.71-26.24-4.5-6.79.1-13.41,1.7-20,2.87-3.67.67-8.42-.2-10.13-3.93-2.48-5.71-2.67-12.1-5-17.87-12.28-2.07-24.86-4.2-36-10C5.39,266,.65,262.32.37,256.9A7.22,7.22,0,0,1,7,249.3c17.88-2.91,33.95-13,46.23-26.07A113.24,113.24,0,0,0,75.4,189.1c1.8-4.12,1.44-9.32-2-12.49-7.32-6.68-17.77-7.32-26.28-11.78-4.19-2.17-8.44-4.81-11-8.93a10.57,10.57,0,0,1,1.2-12.45c5-5.79,14.12-8.14,21.09-4.6,6.33,2.78,13.77,5.08,20.48,2.24-.75-12.71-1.88-25.41-1.7-38.14-.16-11.95.32-24.17,4.2-35.58C89.65,46,106.27,27.67,127.4,18.49Z" transform="translate(-0.34 -9.65)"/></svg>