<svg xmlns="http://www.w3.org/2000/svg" width="90.97" height="42.13" viewBox="0 0 90.97 42.13"><defs><style>.a{fill:#fff;}</style></defs><title>soundcloud</title><path class="a" d="M49,27.67c8.33-3.24,18.73-1.23,24.55,5.76,2.44,2.74,3.59,6.29,4.41,9.79,4.11-.57,8.66.15,11.59,3.34,5,4.76,4.46,13.73-1.08,17.85C85.27,67.15,80.89,67.1,76.95,67c-8.69-.11-17.38.1-26.06-.07-1.6.23-2-1.7-1.89-2.89C49,51.93,49,39.8,49,27.67Z" transform="translate(-1.99 -26.16)"/><path class="a" d="M44.45,29.09C46.35,30.42,46,33,46.39,35a244.38,244.38,0,0,1,.49,25.1c-.21,2.31-.06,4.76-1,6.95-2,1.85-2.6-1.55-2.57-2.93C42.86,52.47,42.56,40.64,44.45,29.09Z" transform="translate(-1.99 -26.16)"/><path class="a" d="M31.53,39.93A15.71,15.71,0,0,1,33,33.39c1.63,4,1.43,8.35,1.75,12.56.31,6.78.58,13.63-.5,20.35.15,1.84-3.19,1.45-2.66-.38C30.54,57.29,31.12,48.58,31.53,39.93Z" transform="translate(-1.99 -26.16)"/><path class="a" d="M25.67,39a13.53,13.53,0,0,1,1.24-4.52c1.78,3.23,1.25,7,1.57,10.52a110.87,110.87,0,0,1,0,19.11A7.8,7.8,0,0,1,27,68.29l-1.35-2.37C24.6,57,25.3,48,25.67,39Z" transform="translate(-1.99 -26.16)"/><path class="a" d="M38.28,35.69c2.13.75,1.59,3.33,2,5.09.64,8.73,1.39,17.65-.28,26.29-1.51,1.58-2.77-.7-2.58-2A131.48,131.48,0,0,1,38.28,35.69Z" transform="translate(-1.99 -26.16)"/><path class="a" d="M19.31,48c.27-3.2-.14-6.64,1.71-9.48a16.21,16.21,0,0,1,1.12,4.31c.67,8.07,1.24,16.26-.14,24.29l-2.08.18C18.7,61,19,54.4,19.31,48Z" transform="translate(-1.99 -26.16)"/><path class="a" d="M7.9,66.14c-.55-7.48-1.66-15.5,1-22.69,2.83,7.13,1.81,15.22,1.11,22.7Z" transform="translate(-1.99 -26.16)"/><path class="a" d="M13.36,55.92c.13-3.86-.25-7.94,1.56-11.51,2.7,7.2,1.67,15.24,1.15,22.75H13.85C13.19,63.47,13.46,59.67,13.36,55.92Z" transform="translate(-1.99 -26.16)"/><path class="a" d="M2.25,50.94c-.07-1.32.86-2.25,1.58-3.23,1,5.35,2.19,11.6-.7,16.54C1.67,60,1.91,55.37,2.25,50.94Z" transform="translate(-1.99 -26.16)"/></svg>