<svg xmlns="http://www.w3.org/2000/svg" width="219.76" height="219.7" viewBox="0 0 219.76 219.7"><defs><style>.a{fill:#fff;}</style></defs><title>spotify</title><path class="a" d="M90.49,1.79a109.9,109.9,0,0,1,75.92,202.48A107.9,107.9,0,0,1,111,219.78c-27.46.59-54.84-10.11-75-28.65A109.67,109.67,0,0,1,12.1,60.07C27.29,29.86,57.17,7.61,90.49,1.79M83.3,58.35c-14,.68-28.1,2.51-41.61,6.5a10.18,10.18,0,0,0-6.92,5.84,10.48,10.48,0,0,0,6.31,14.13c3.89,1.4,7.77-.56,11.54-1.41,14.82-3.65,30.16-4.8,45.38-4.62,24.45.75,49.34,4.7,71.4,15.72,4.18,2,8.37,5.71,13.34,4.23,6.27-1.22,9.82-8.87,7-14.53-2.45-5-8.26-6.62-12.77-9.17C147.93,61.31,115.16,57.18,83.3,58.35M78.4,96.47a146.18,146.18,0,0,0-31,5.75,8.47,8.47,0,0,0-6,8.77c0,5.22,5.7,9.42,10.69,7.9a132,132,0,0,1,25.9-5c26.33-2.23,53.54,1.95,77.28,13.84,4.66,2.19,9.39,7,14.91,4.35,6.22-2.44,6.88-12,1.1-15.29-27.65-16.65-60.91-22.71-92.86-20.36m-3.79,36.39A195.25,195.25,0,0,0,50.8,137c-5.11,1.23-6.58,8.57-2.57,11.85,3.62,3.34,8.54.75,12.69.17,29.65-6,62.34-4.69,88.8,11.29,2.91,2.19,7.49,2.37,10-.54A7,7,0,0,0,158.06,149C133.35,133.7,103.12,129.57,74.61,132.86Z" transform="translate(-0.12 -0.1)"/></svg>