<svg xmlns="http://www.w3.org/2000/svg" width="300" height="300" viewBox="0 0 300 300"><defs><style>.a{fill:#fff;}</style></defs><title>stumbleupon</title><path class="a" d="M146.52,0h8.31C181,1.11,207,8.66,229.3,22.65a150.57,150.57,0,0,1,64.31,83.48c3.49,11.08,5.29,22.59,6.39,34.13v19A150.35,150.35,0,0,1,182.12,296.74,190.66,190.66,0,0,1,159.81,300H141A150.42,150.42,0,0,1,5.17,189,162.16,162.16,0,0,1,0,153.58v-8.79c.75-9.68,1.68-19.39,4-28.85A150.29,150.29,0,0,1,61.83,28.8C86.26,10.81,116.26.93,146.52,0M139.9,85.27c-16.4,3.51-29.35,18.94-29.67,35.76-.07,18.65,0,37.31,0,56a9.16,9.16,0,0,1-9.24,8.82,9,9,0,0,1-8.81-8.74c0-7.93,0-15.85,0-23.78-9.87,0-19.73-.1-29.59.06.21,8.87-.12,17.75.17,26.62,1,16.44,13.77,31.21,29.87,34.61A38.45,38.45,0,0,0,139.43,178c0-18.36,0-36.73,0-55.09a9.11,9.11,0,0,1,7.51-9c5-1.06,10.23,3.06,10.54,8.11.14,3.75,0,7.5,0,11.25,3.85,2,7.84,3.7,11.73,5.61,5.9-1.6,11.71-3.52,17.59-5.19.07-3.93,0-7.87,0-11.8a38.3,38.3,0,0,0-46.91-36.7m65,68c0,8.28,0,16.56,0,24.84a9,9,0,0,1-18-.06c-.07-8.11-.08-16.23,0-24.35-5.91,1.57-11.71,3.5-17.58,5.19-3.92-1.87-7.86-3.66-11.75-5.58,0,8.87-.13,17.74.05,26.6.95,17.37,15.18,32.78,32.4,35.16A38.47,38.47,0,0,0,234.41,178c.05-8.24,0-16.47,0-24.71C224.57,153.3,214.71,153.26,204.86,153.27Z"/></svg>