<svg xmlns="http://www.w3.org/2000/svg" width="300" height="300" viewBox="0 0 300 300"><defs><style>.a{fill:#fff;}</style></defs><title>telegram</title><path class="a" d="M141.62,0h16.66A150.31,150.31,0,0,1,290.35,96.44,154.44,154.44,0,0,1,300,141.57V158.4a150.39,150.39,0,0,1-95.2,131.47A153.76,153.76,0,0,1,158.37,300H141.72A150.3,150.3,0,0,1,11,207,153.35,153.35,0,0,1,0,158.41v-16.8A150.33,150.33,0,0,1,141.62,0m-71,146.35c-3.18,1.32-6.76,2.58-8.76,5.57-2.11,2.73,1.49,5.41,3.87,6.26q19.2,6,38.44,12c4.69,15.24,9.26,30.51,14,45.74,1,3.93,6.46,3.1,9,1.29,7.3-6.29,13.89-13.37,20.84-20,12,9,24.16,17.88,36.23,26.84,2.84,2.11,6.78,3.9,10.26,2.26,2.86-1.69,4-5.07,4.62-8.16q12.48-58.92,25-117.84c1.31-5.25-3.61-11.82-9.28-9.49C166.71,109.2,118.69,127.85,70.62,146.35Z"/></svg>