<svg xmlns="http://www.w3.org/2000/svg" width="300" height="300.04" viewBox="0 0 300 300.04"><defs><style>.a{fill:#fff;}</style></defs><title>tvshow-time</title><path class="a" d="M22.68,0H276.1a29.32,29.32,0,0,1,21.41,17.56c2,4.58,2.15,9.69,2.49,14.6V263.67c0,8.15-.55,16.94-5.68,23.67-6.06,8.85-17,13.16-27.52,12.66H34.63c-7-.22-14.43-.3-20.59-4.06A29.78,29.78,0,0,1,0,277.71V21.53A29.39,29.39,0,0,1,22.68,0m37.2,60.31c0,19.85.1,39.71-.06,59.56,20.12.16,40.25-.25,60.35.21-.16,1.6-.31,3.2-.33,4.82q0,57.6,0,115.19c18.05.06,36.11,0,54.16.05a49.46,49.46,0,0,0,5.83-.37c-.1-40-.06-80-.19-120,20,.16,40,0,60,0-.07-19.78-.13-39.57,0-59.35C179.73,60.54,119.8,60.15,59.88,60.31Z"/></svg>