<svg xmlns="http://www.w3.org/2000/svg" width="287.11" height="300" viewBox="0 0 287.11 300"><defs><style>.a{fill:#333;}</style></defs><title>twitch</title><path class="a" d="M26.48,0h267c.1,60.87,0,121.74.06,182.6C267.21,208.55,241.35,235,215,260.88c-18.66-.24-37.33,0-56-.13a3.93,3.93,0,0,0-3.79,1.41c-12.44,12.59-25.11,25-37.43,37.67-12.71.17-25.42-.16-38.12.17H78.39c-.13-13.08,0-26.16-.06-39.23-24,.08-47.91-.08-71.87.08q0-103.91,0-207.8c6.58-17.66,13.13-35.45,20-53M52.35,26.12q0,94.5,0,189c19.58.11,39.17,0,58.75.07-.17,13.08.3,26.18-.26,39.25,13.09-13.13,26.28-26.17,39.28-39.38,23.95.18,47.9.11,71.85,0,15-15.38,30.49-30.29,45.43-45.72-.19-47.77,0-95.55-.1-143.32C195.64,26.26,124,26.13,52.35,26.12Z" transform="translate(-6.44)"/><path class="a" d="M124.16,78.27c8.63.08,17.26.06,25.89,0,0,26.11.23,52.23-.1,78.33-8.6-.17-17.2-.08-25.8,0Q124.09,117.42,124.16,78.27Z" transform="translate(-6.44)"/><path class="a" d="M195.62,78.19c8.69.23,17.39.14,26.09,0q.13,39.17,0,78.35c-8.73-.11-17.46-.06-26.18,0C195.62,130.44,195.46,104.32,195.62,78.19Z" transform="translate(-6.44)"/></svg>