<svg xmlns="http://www.w3.org/2000/svg" width="299.91" height="261.26" viewBox="0 0 299.91 261.26"><defs><style>.a{fill:#333;}</style></defs><title>vimeo</title><path class="a" d="M213.63,29.59C226.94,21.86,242.69,18.76,258,19.5c10.18.94,20.83,3.85,28.23,11.31,9.61,9.41,12.8,23.32,13.52,36.31a96.51,96.51,0,0,1-3.32,32.45c-5,17.74-13.44,34.27-22.82,50-11.9,19.91-25.66,38.64-40,56.88-11.87,15-24.49,29.51-38.56,42.52-15.36,13.93-32.93,27.25-53.92,30.67-5.9,2.4-12-.18-17.54-2.28-11.24-5.35-18.51-16.15-24.25-26.78-4-7.92-7.83-16.06-10-24.71Q78.82,187,68.22,148C64.72,135.06,61,122.06,55,110c-2.77-5.26-5.87-10.67-10.8-14.19-2.56-1.67-6-3.15-8.93-1.5C27.78,98,21,103,14.1,107.74,9.44,101.73,5.05,95.5,0,89.82v-1l0,1C7.15,83.32,14.44,77,21.58,70.58c15.83-13.87,30.73-29.1,48.85-40.06,5.34-3.14,11-6.11,17.21-7,6.23-.67,12.74-.15,18.47,2.54,7.25,3.26,12.7,9.54,16.35,16.47,5.66,10.67,7.94,22.7,9.69,34.54,4.47,26.94,8.14,54.12,15.48,80.48,2.5,8.22,5.06,16.66,10,23.78,2.25,3.25,6.18,6.42,10.36,4.86,6.08-2.45,10.32-7.79,14.37-12.72a242.7,242.7,0,0,0,22.85-36.2c5.84-11.43,11-24.22,8.82-37.3-.87-6.29-5.36-12-11.63-13.6-10.17-2.72-20.95-.19-30.49,3.68C179.19,66.43,191.61,42.47,213.63,29.59Z" transform="translate(0 -19.39)"/></svg>