<svg xmlns="http://www.w3.org/2000/svg" width="246.78" height="246.66" viewBox="0 0 246.78 246.66"><defs><style>.a{fill:#fff;}</style></defs><title>xbox</title><path class="a" d="M57.84,20.63c25.21-16.57,56.7-23.44,86.45-18,16.39,2.58,31.83,9.32,45.82,18.08-11.17-3.26-23-.45-33.55,3.79a146.62,146.62,0,0,0-32.62,19.1c-11.69-8.77-24.39-16.44-38.28-21.18C76.76,19.49,67,17.94,57.84,20.63Z" transform="translate(-0.5 -0.77)"/><path class="a" d="M39.67,36.7c2.45-2.41,6.31-1.48,9.17-.41C59.71,41,68.94,48.55,78.1,55.87,83.7,60.43,89.22,65.09,94.51,70c-19.46,19.27-36.4,41.21-49.17,65.49-8.19,15.68-15.13,32.25-18.3,49.73-.84,4.38-.82,8.86-1,13.3C9,177.77.33,150.71.5,124A119.83,119.83,0,0,1,39.67,36.7Z" transform="translate(-0.5 -0.77)"/><path class="a" d="M193.09,39.17c4.21-2.13,9.29-5.45,14.05-3.24a116.94,116.94,0,0,1,29,38.83A119.8,119.8,0,0,1,243.77,154,116,116,0,0,1,222,198.44c-.19-16.47-5.58-32.33-11.93-47.35A259.45,259.45,0,0,0,153.18,70C165.87,59,178.52,47.66,193.09,39.17Z" transform="translate(-0.5 -0.77)"/><path class="a" d="M76.25,143.25q23.52-23.85,47.71-47c15.7,15.23,31.34,30.54,46.7,46.12,7.67,7.4,13.89,16.13,20.4,24.54,6.08,8.45,12.11,17.1,16.21,26.73,2,4.75,3.52,10.05,2.2,15.19-.92,3.77-4,6.39-6.77,8.88a119.37,119.37,0,0,1-160.16-2.24A14.39,14.39,0,0,1,37.82,204c.57-6.39,3.34-12.32,6.37-17.88,7.18-12.71,16.17-24.26,25.37-35.55C71.67,148,73.92,145.6,76.25,143.25Z" transform="translate(-0.5 -0.77)"/></svg>