<svg xmlns="http://www.w3.org/2000/svg" width="219.54" height="154.49" viewBox="0 0 219.54 154.49"><defs><style>.a{fill:#fff;}</style></defs><title>youtube</title><path class="a" d="M91.32,32.44q35.37-.54,70.73.91c10.62.53,21.3.4,31.82,2.12,8.35,1.66,16.14,7.2,19.56,15.12,5.5,12,5.17,25.54,6.28,38.45.09,18.64.87,37.35-1.14,55.91a64.89,64.89,0,0,1-5.06,23.44c-3.26,7.67-10.61,13.16-18.61,15.07-9.5,1.85-19.22,1.64-28.84,2.19C123.73,187.49,81.31,187,39,185c-8.09-1-16.79-1.37-23.65-6.33C6.64,172.85,4,161.85,2.5,152.12,1.29,139.79.24,127.4.41,115c0-11.64-.23-23.31,1-34.9C2,69.5,2.87,58.52,7.82,48.92c2.51-5,7-8.72,11.93-11.19,6.58-3.23,14.11-3,21.25-3.7,16.77-.62,33.53-1.43,50.32-1.59m-3.6,44.31c-.19,20.44,0,40.89-.1,61.34,19.61-10.44,39.55-20.28,59-30.91C126.88,97.33,107.54,86.55,87.72,76.75Z" transform="translate(-0.39 -32.29)"/></svg>