<svg xmlns="http://www.w3.org/2000/svg" width="48" height="48" viewBox="0 0 48 48"><defs><style>.a{fill:#333;}</style></defs><title>chrome</title><path class="a" d="M15.08,24A8.93,8.93,0,1,0,24,15.08h0A8.93,8.93,0,0,0,15.08,24Z"/><path class="a" d="M24,13.37H45.52A24,24,0,0,0,5.17,9.14l8.23,14.07A10.64,10.64,0,0,1,24,13.37ZM24,34.65a10.65,10.65,0,0,1-10-7l-9.93-17A24,24,0,0,0,20.54,47.75l8.28-14.27A10.58,10.58,0,0,1,24,34.65ZM46.29,15.08H29.79a10.65,10.65,0,0,1,3.56,14h0L22.41,47.95c.53,0,1.06.05,1.59.05A24,24,0,0,0,46.29,15.08Z"/></svg>