<svg xmlns="http://www.w3.org/2000/svg" width="64.6" height="58.6" viewBox="0 0 64.6 58.6"><defs><style>.a,.c,.d{fill:#fff;}.a,.b,.c,.d{stroke:#fff;stroke-miterlimit:10;}.a{stroke-width:0.6px;}.b{fill:none;stroke-width:2.6px;}.c{stroke-width:2px;}.d{stroke-width:0.75px;}</style></defs><title>code_</title><path class="a" d="M62.38,2.38v54h-60v-54h60m.92-2H1.46A1.08,1.08,0,0,0,.38,1.45V57.29a1.08,1.08,0,0,0,1.08,1.08H63.29a1.08,1.08,0,0,0,1.08-1.08h0V1.45A1.08,1.08,0,0,0,63.29.38Z" transform="translate(-0.07 -0.07)"/><line class="b" x1="1.3" y1="15.3" x2="62.3" y2="15.3"/><circle class="c" cx="8.8" cy="8.8" r="1"/><circle class="c" cx="14.8" cy="8.8" r="1"/><circle class="c" cx="20.8" cy="8.8" r="1"/><path class="d" d="M33.38,46.88h16.5a1,1,0,0,0,0-2H33.38a1,1,0,0,0,0,2Z" transform="translate(-0.07 -0.07)"/><path class="d" d="M15.16,27.58,27,36.82c1,.78,2.43-.62,1.41-1.41L16.58,26.17c-1-.78-2.43.62-1.41,1.41Z" transform="translate(-0.07 -0.07)"/><path class="d" d="M16.58,46.58,28,37.15c1-.82-.43-2.23-1.41-1.41L15.16,45.17c-1,.82.43,2.23,1.41,1.41Z" transform="translate(-0.07 -0.07)"/></svg>