<svg xmlns="http://www.w3.org/2000/svg" width="351.1" height="564.8" viewBox="0 0 351.1 564.8"><defs><style>.a{fill:#fff;}</style></defs><title>down</title><path class="a" d="M191.6,0h-32V443.7h32Q191.54,221.86,191.6,0Z"/><path class="a" d="M329.2,366.9c-14.5,14-28.6,28.6-43,42.8Q239.1,457,191.7,504.1q-.05-34.19-.06-68.4h-32v24.4c-.1,14.7.1,29.4-.1,44.1Q91.7,436.4,24,368.7c-.7-.5-1.8-2.2-2.7-1C14.1,374.8,7,381.9,0,389.1c47.6,48,95.5,95.6,143.1,143.5,10.8,10.7,21.5,21.6,32.4,32.2,31-30.6,61.6-61.5,92.4-92.3,27.7-27.8,55.6-55.4,83.2-83.4C344,381.5,336.4,374.4,329.2,366.9Z"/></svg>