<svg xmlns="http://www.w3.org/2000/svg" width="48" height="48" viewBox="0 0 48 48"><defs><style>.a{fill:#333;}</style></defs><title>edge</title><path class="a" d="M1.82,21.31h0a29.29,29.29,0,0,1,1.57-6.47A24.4,24.4,0,0,1,6.5,9,22.88,22.88,0,0,1,11,4.3a19.81,19.81,0,0,1,6-3.15A23.22,23.22,0,0,1,24.4,0,21.82,21.82,0,0,1,35.5,2.83,21,21,0,0,1,43.39,11a24,24,0,0,1,2.79,11.85v5H16A9.51,9.51,0,0,0,17.45,33a9,9,0,0,0,3.66,3.29,17.4,17.4,0,0,0,5.08,1.53,21,21,0,0,0,5.71.08,28,28,0,0,0,5.58-1.25,18.05,18.05,0,0,0,4.65-2.27V44.51A24.37,24.37,0,0,1,36,47a33.08,33.08,0,0,1-8.38,1,23.17,23.17,0,0,1-8.47-1.42,17.89,17.89,0,0,1-8.35-6.68,17.51,17.51,0,0,1-3.34-10,19,19,0,0,1,3-11,20.61,20.61,0,0,1,8.71-7.18A16.09,16.09,0,0,0,17,15.06a17.52,17.52,0,0,0-1.23,4.28h17a10.64,10.64,0,0,0-.22-3.75,7,7,0,0,0-1.26-2.72,9.3,9.3,0,0,0-1.89-1.78A7.76,7.76,0,0,0,27.3,10c-.74-.23-1.41-.42-2-.55a9.6,9.6,0,0,0-1.5-.23l-.59,0a25.91,25.91,0,0,0-7,1.2,24.29,24.29,0,0,0-6,2.8,31.25,31.25,0,0,0-4.72,3.77,30.88,30.88,0,0,0-3.69,4.38Z"/></svg>