<svg xmlns="http://www.w3.org/2000/svg" width="300" height="300" viewBox="0 0 300 300"><defs><style>.a{fill:#fff;}</style></defs><title>email</title><path class="a" d="M0,260.08V39.92H300V260.08Zm20.35-200c.88,1,1.35,1.51,1.86,2q51.72,51.32,103.46,102.6A146.42,146.42,0,0,0,138.21,176a18.74,18.74,0,0,0,23.72,0,131.55,131.55,0,0,0,11.87-10.62q52-51.46,103.93-103c.62-.62,1.18-1.31,2.05-2.29Zm4.38,179.75H275.47l-81.42-66.61c-1.21,1.35-2.1,2.52-3.16,3.5-5.6,5.14-11,10.55-16.92,15.27-9.95,7.91-21.43,9.61-33.67,6.89-8.23-1.83-14.67-6.75-20.69-12.29-4.59-4.23-9-8.62-13.74-13.13Zm184.74-79.67L280,217.86V88.14ZM20.21,88.1V217.88l70.55-57.74Z"/></svg>