<svg xmlns="http://www.w3.org/2000/svg" width="300" height="300" viewBox="0 0 300 300"><defs><style>.a{fill:#fff;}</style></defs><title>feed</title><path class="a" d="M300,299.83H276.88c-1.36-75.84-27.62-141.61-81.4-195.37S76.13,24.52.19,23.12V.14c75.68,1,142.55,25.51,198.94,76.1C265.39,135.68,298,210.8,300,299.83Z"/><path class="a" d="M207.74,299.86H184.61c-1-50.55-18.44-94.34-54.2-130.13S50.88,116.41,0,115.39V92.44c49.38.53,93.48,15.64,131.36,47.08C181.26,180.95,206,234.76,207.74,299.86Z"/><path class="a" d="M115.16,299.83H93c-5.91-56-36.65-86.84-92.86-92.91V185.26C53.73,182.41,115,229.11,115.16,299.83Z"/></svg>