<svg xmlns="http://www.w3.org/2000/svg" width="48" height="48" viewBox="0 0 48 48"><defs><style>.a{fill:#333;}</style></defs><title>firefox</title><path class="a" d="M23.93,2.49A20.83,20.83,0,1,1,3.12,23.33h0A20.84,20.84,0,0,1,23.93,2.49m0-1.5A22.33,22.33,0,1,0,46.24,23.33h0A22.34,22.34,0,0,0,23.93,1Z"/><path class="a" d="M41.35,37c.2-.38.41-.72.63-1.05l-.07.15a18.65,18.65,0,0,1,1.17-1.65,26,26,0,0,0,2.37-3.11,7.74,7.74,0,0,0,.38-.75,19.37,19.37,0,0,0,2-11,11.25,11.25,0,0,0-.52-2.18l0,.13,0-.08s-.38,1.19-.92,3a17.36,17.36,0,0,0-.82-7.73,14.18,14.18,0,0,0-1.35-2.77,8.34,8.34,0,0,0-2.12-2.53l.21.19-.21-.19.1.11-.14-.12.14.75a9,9,0,0,0-3.28-3s.1.56.25,1.74a19,19,0,0,0-6.87-3.49c4.42,2.92,6.08,5.39,7.13,7.6a8.88,8.88,0,0,0-4.56-2.59c2.05,1.53,5.48,6,5.12,12.9a14.13,14.13,0,0,0-2.17-3.44c.75,6.73.09,8.18-.36,10A5.84,5.84,0,0,0,36.9,26a15,15,0,0,1-1.44,5.1c-1,2.27-2.1,3-2.58,2.89a.31.31,0,0,1-.2-.07,1.88,1.88,0,0,0,0-.8,1.64,1.64,0,0,0-.72.55,2.13,2.13,0,0,1-.48.46s.31-.44.29-.42a6,6,0,0,0-.54.49c-.67.68-1.27,1.47-1.6,1.25a1.05,1.05,0,0,0,.59-.83,5.12,5.12,0,0,1-2.43.91,10.67,10.67,0,0,1-6.69-1.17,2.94,2.94,0,0,1,1.84.11c-.58-.63-2-.5-3-.81a9.7,9.7,0,0,1-2.66-2.12,9.44,9.44,0,0,0,7.14-.94c1.64-1.12,2.63-2,3.52-1.77a.85.85,0,0,0,.8-1.47,4.59,4.59,0,0,0-4.59-1.28c-1.73.43-3.2,1.82-5.63.86l-.45-.2c-.15-.08.51.09.35,0A10.89,10.89,0,0,1,16.92,26s.35.07.31,0c-2.3-1.36-2.15-2.45-2.15-3.12A2,2,0,0,1,16,21.34a4.58,4.58,0,0,1,.54.23s-.15-.24-.25-.35l.07,0a12,12,0,0,1,1.19.47,1.5,1.5,0,0,1,.56.42s.1-.06,0-.28a1.5,1.5,0,0,0-.6-.6h0a5.63,5.63,0,0,1,.7.34,3.15,3.15,0,0,0,.14-1.42c-.08-.47-.06-.59-.18-.75s0-.21.18-.08a2,2,0,0,0-.13-.3v0c.72-.87,3.57-2.2,4.22-2.87l.19-.21v0a2,2,0,0,0,.7-1c.17-.41.38-1.37-.19-1.57a5.36,5.36,0,0,0-1.56-.17c-.56,0-1.31,0-2.31,0a2.47,2.47,0,0,1-2.06-1.13L17,11.72a3.43,3.43,0,0,1-.19-.41,7.92,7.92,0,0,1,2.7-4.13c.08-.07-.33,0-.25,0a8.76,8.76,0,0,1,.78-.42c.14-.08-.63-.29-1.3-.15A3.3,3.3,0,0,0,17.64,7c.14-.14.59-.38.48-.35a7.13,7.13,0,0,0-2.3,1.15.92.92,0,0,1,0-.23,3.84,3.84,0,0,0-1.38,1.3,2,2,0,0,0,0-.28,5,5,0,0,0-.67.75h0a9.92,9.92,0,0,0-5.51.09,8.77,8.77,0,0,1-1.88-2.1h0s-.05.15-.09.13h0a6.63,6.63,0,0,1-.74-2.59h0a2.77,2.77,0,0,0-1,1.57,4.75,4.75,0,0,1-.17.46h0s0-.38,0-.38h0a3,3,0,0,0-.35.67,3.89,3.89,0,0,0-.17.59h0a1.5,1.5,0,0,0,0-.26h0a11.05,11.05,0,0,0-.38,1.22L3.42,9v.1a12.24,12.24,0,0,0-.21,1.36,13.35,13.35,0,0,0,0,2.39,2.5,2.5,0,0,1,0,.38,13.31,13.31,0,0,0-.88,1.35A22.61,22.61,0,0,0,0,21.93l.05-.15,0,.14a15.94,15.94,0,0,1,1.13-2.55A23.67,23.67,0,0,0,.4,28v0a24.71,24.71,0,0,1,.44-2.59,21.28,21.28,0,0,0,2.94,9.79c1.63,2.79,5.93,9.28,16.71,11.71a5.16,5.16,0,0,1-1.92-1,25.29,25.29,0,0,0,7,1.19c-.92-.16-1.1-.6-1.1-.6S34.89,47,38.5,42.06c-1.23,1.44-4.37,1.85-5.55,1.88,1.8-1.65,5.78-1.62,10.1-5.86a8.74,8.74,0,0,0,2.88-5.76c-.39,2.17-2.46,3.47-4.61,4.65Z"/></svg>