<svg xmlns="http://www.w3.org/2000/svg" width="48" height="48" viewBox="0 0 48 48"><defs><style>.a{fill:#333;}</style></defs><title>ie</title><path class="a" d="M48,25.1a21.47,21.47,0,0,0-2.7-10.46C52.63-2,37.42.47,36.6.64a38.63,38.63,0,0,0-8.94,2.93A21.57,21.57,0,0,0,5.41,20.26c5.4-6.06,9.18-8.51,11.45-9.49A60,60,0,0,0,6.18,23.57a66.58,66.58,0,0,0-3.6,6.48,17.88,17.88,0,0,0-1.37,3.12c-6.14,21.93,13,12.67,15.68,11.29A21.59,21.59,0,0,0,46.76,32.34H35.43a10.19,10.19,0,0,1-11.31,4.4A9.42,9.42,0,0,1,17,28.32v-.42H47.84A21.75,21.75,0,0,0,48,25.1ZM44,3.87c1.88,1.25,3.35,3.22.79,9.85A21.64,21.64,0,0,0,34.23,5c2-1,6.94-3,9.75-1.13h0ZM4.5,44.4C3,42.85,2.72,39.07,6.06,32.18a21.63,21.63,0,0,0,9.38,11.48c-2.16,1.19-7.9,3.87-11,.75h0ZM16.93,22A9.4,9.4,0,0,1,24,13.44a10.11,10.11,0,0,1,10.85,3.8A8.86,8.86,0,0,1,36.42,22H16.93Z"/></svg>