<svg xmlns="http://www.w3.org/2000/svg" width="300" height="300" viewBox="0 0 300 300"><defs><style>.a{fill:#fff;}</style></defs><title>local</title><path class="a" d="M149.35,300a21,21,0,0,0-1.54-1.83C110.79,263,80.18,223,57.69,177c-8.08-16.51-14.25-33.76-16.56-52.12-4.58-36.38,6.07-67.82,32.1-93.56C95.78,9.06,123.47-1.06,155.12.09,205.74,1.92,249.39,40.4,258.25,90.4c4,22.65.43,44.35-7.23,65.61-11.23,31.15-28.55,58.91-48.32,85.23-15.53,20.69-32.17,40.43-51.49,57.75a4,4,0,0,0-.6,1Zm.2-27.23c1.57-1.53,2.57-2.43,3.49-3.41a457.51,457.51,0,0,0,46.31-57.67c13.11-19.35,24.74-39.51,32.66-61.6,5.67-15.81,9.14-32,7.5-48.94C233.39,38,164.62.71,108.38,30.19a90,90,0,0,0-47.32,93.41c2.39,15.58,7.62,30.21,14.28,44.38,12.76,27.11,29.55,51.64,48.4,74.79C132,252.93,140.82,262.66,149.55,272.77Z"/><path class="a" d="M200,109.9c.11,27.28-22.25,50-49.39,50.08-27.84.13-50.51-22-50.61-49.47a50,50,0,1,1,100-.62ZM150,140c16.07.14,29.76-13.32,29.94-29.43.18-16.65-13.07-30.41-29.42-30.56a30,30,0,1,0-.51,60Z"/></svg>