<svg xmlns="http://www.w3.org/2000/svg" width="64.9" height="53.85" viewBox="0 0 64.9 53.85"><defs><style>.a,.b{fill:#fff;}.a,.b,.c{stroke:#fff;stroke-miterlimit:10;}.a{stroke-width:0.5px;}.b{stroke-width:2px;}.c{fill:none;stroke-width:2.6px;}</style></defs><title>mobile</title><path class="a" d="M3.15,41.25a.9.9,0,0,1-.9-.9V3.15a.9.9,0,0,1,.9-.9h54.3a.9.9,0,0,1,.9.9v22.1h2V3.15a2.9,2.9,0,0,0-2.9-2.9H3.15a2.9,2.9,0,0,0-2.9,2.9v37.3a2.9,2.9,0,0,0,2.9,2.9h42.1v-2H3.15Z"/><path class="a" d="M63.55,23.55H44.75a1.11,1.11,0,0,0-1.1,1.1v27.8a1.11,1.11,0,0,0,1.1,1.1h18.8a1.11,1.11,0,0,0,1.1-1.1V24.65A1.11,1.11,0,0,0,63.55,23.55Zm-.9,28h-17v-26h17Z"/><circle class="b" cx="30.15" cy="7.05" r="1"/><path class="c" d="M39.45,52.55H21.15c-.2,0-.3-.4-.2-.7l3.4-9.2a.22.22,0,0,1,.2-.2h10.7c.1,0,.1.1.2.2l4.1,9.1C39.75,52.15,39.65,52.55,39.45,52.55Z"/><circle class="b" cx="54.15" cy="48.05" r="1"/></svg>