<svg xmlns="http://www.w3.org/2000/svg" width="48" height="48" viewBox="0 0 48 48"><defs><style>.a{fill:#333;}</style></defs><title>opera</title><path class="a" d="M47.6,24h0a23.41,23.41,0,0,1-7.84,17.51,14.19,14.19,0,0,1-13.51-.4C32.17,39.82,36.64,32.66,36.64,24S32.17,8.18,26.25,6.88a14.21,14.21,0,0,1,13.51-.41A23.49,23.49,0,0,1,47.6,24Z"/><path class="a" d="M16.36,10.75A20.46,20.46,0,0,0,12,23.45v1.11a20.43,20.43,0,0,0,4.4,12.68,17.65,17.65,0,0,0,14,7.15,17,17,0,0,0,9.42-2.87,23.46,23.46,0,0,1-15.67,6l-1.12,0A23.5,23.5,0,0,1,24.1.5h.09a23.38,23.38,0,0,1,15.58,6A17,17,0,0,0,30.35,3.6a17.68,17.68,0,0,0-14,7.15Z"/></svg>