<svg xmlns="http://www.w3.org/2000/svg" width="300" height="300" viewBox="0 0 300 300"><defs><style>.a{fill:#fff;}</style></defs><title>phone</title><path class="a" d="M61.29.06l72.52,88.56-31.75,29.65,79.41,79.38L211,165.89l89,72.84a21.55,21.55,0,0,0-3.34,2.22c-13.5,13.43-27.19,26.67-40.35,40.43-14.21,14.85-31.45,20-51.48,18.24-32.1-2.78-60.78-14.81-87.33-32.24-44.31-29.1-78.91-67-101.58-115.18C6.36,131.87.5,110.52,0,87.9-.35,71,5.4,56.62,17.53,44.7,31.43,31.05,45.13,17.18,58.88,3.38A28.21,28.21,0,0,0,61.29.06ZM60,32.29c-9.54,9.59-18.67,18.87-27.93,28A34.76,34.76,0,0,0,21.4,86.4c.18,19.25,5.05,37.44,13.1,54.74,21.94,47.17,56,83.62,99.76,111.25,21.85,13.81,45.38,23.4,71.47,25.87,14.12,1.34,26.3-1.57,36.18-12.64,7.32-8.21,15.49-15.67,23.28-23.47.75-.75,1.43-1.57,2.23-2.45l-54.09-44.28-32.8,32.06L72.43,119.4l32.08-32.8Z"/></svg>