<svg xmlns="http://www.w3.org/2000/svg" width="64.5" height="60.44" viewBox="0 0 64.5 60.44"><defs><style>.a,.c{fill:#fff;}.a,.b,.c{stroke:#fff;stroke-miterlimit:10;}.a{stroke-width:0.5px;}.b{fill:none;}.b,.c{stroke-width:2.5px;}</style></defs><title>presentation_</title><path class="a" d="M62.25,5.75v38h-60v-38h60m2-2H.25v42h64Z"/><path class="a" d="M31.75,44.75v9.5a1,1,0,0,0,2,0v-9.5a1,1,0,0,0-2,0Z"/><path class="a" d="M32,49,43,60a1,1,0,0,0,1.41-1.41l-11-11A1,1,0,0,0,32,49Z"/><path class="a" d="M32,47.53l-11,11a1,1,0,0,0,1.41,1.41l11-11A1,1,0,0,0,32,47.53Z"/><path class="a" d="M31.75,1.25v3a1,1,0,0,0,2,0v-3a1,1,0,0,0-2,0Z"/><path class="b" d="M20.25,24.75l.13,11.5h-.13a11.5,11.5,0,1,1,11.5-11.5Z"/><line class="c" x1="39.25" y1="19.75" x2="56.25" y2="19.75"/><line class="b" x1="39.25" y1="24.75" x2="56.25" y2="24.75"/><line class="b" x1="39.25" y1="29.75" x2="50.25" y2="29.75"/></svg>