<svg xmlns="http://www.w3.org/2000/svg" width="48" height="48" viewBox="0 0 48 48"><defs><style>.a,.b{fill:#333;stroke:#333;}.a{stroke-miterlimit:10;}.b{stroke-width:1.41px;}</style></defs><title>safari</title><path class="a" d="M24,2A22,22,0,1,1,2,24,22,22,0,0,1,24,2M24,.5A23.5,23.5,0,1,0,47.5,24,23.5,23.5,0,0,0,24,.5Z"/><path class="a" d="M38.61,9.33,26.79,26.59,9.39,38.67,21.47,21.53Z"/><path class="b" d="M24,3.25V7.49M20,3.64l.82,4.16m-4.72-3,1.62,3.93m-5.21-2,2.36,3.53M9.32,9.32l3,3m-5.58.15,3.53,2.36M4.83,16.06l3.93,1.62M3.65,19.95l4.16.83M3.25,24H7.49M3.65,28l4.16-.82m-3,4.72,3.93-1.62m-2,5.21,3.53-2.36m2.2,8.08,2.36-3.52m1.23,5.45,1.62-3.93m2.27,5.1.83-4.16M24,44.75V40.51m4,3.84-.82-4.16m4.72,3-1.62-3.93m5.21,2-2.36-3.52m5.51.95-3-3m5.58-.15-3.52-2.36m5.45-1.23-3.94-1.62m5.1-2.27-4.15-.83M44.75,24H40.51m3.84-4-4.16.82m3-4.72-3.93,1.62m2-5.21-3.52,2.36m-2.2-8.08-2.36,3.53M31.94,4.83,30.32,8.76M28.05,3.65l-.83,4.16"/><path class="b" d="M22,3.35l.21,2.16M18,4.15l.63,2.07M14.23,5.7l1,1.91M10.85,8l1.37,1.67M8,10.84l1.67,1.37m-3.93,2,1.91,1M4.14,18l2.07.63M3.35,22l2.15.21M3.35,26l2.15-.21M4.14,30l2.07-.63M5.7,33.77l1.91-1M8,37.15l1.67-1.37M10.85,40l1.37-1.67m2,3.93,1-1.91M18,43.84l.63-2.07M22,44.64l.21-2.15M26,44.65l-.21-2.15M30,43.86l-.63-2.07m4.39.51-1-1.91M37.15,40l-1.37-1.67M40,37.15l-1.67-1.37m3.93-2-1.91-1M43.84,30l-2.07-.63M44.64,26l-2.15-.21M44.65,22l-2.15.21M43.86,18l-2.07.63m.51-4.39-1.91,1M40,10.85l-1.67,1.37M37.15,8,35.77,9.65m-2-3.95-1,1.91M30,4.14,29.4,6.21M26,3.35,25.81,5.5"/></svg>