<svg xmlns="http://www.w3.org/2000/svg" width="62.29" height="62.29" viewBox="0 0 62.29 62.29"><defs><style>.a,.c{fill:#fff;}.a,.b,.c,.d{stroke:#fff;stroke-miterlimit:10;}.a{stroke-width:0.75px;}.b,.d{fill:none;}.b{stroke-width:2.6px;}.c{stroke-width:0.5px;}.d{stroke-width:2.5px;}</style></defs><title>seo</title><path class="a" d="M22.38,2.38a20,20,0,1,1-20,20,20,20,0,0,1,20-20m0-2a22,22,0,1,0,22,22A22,22,0,0,0,22.38.38Z"/><line class="b" x1="37.38" y1="37.38" x2="61.38" y2="61.38"/><path class="c" d="M13.38,26.38a2,2,0,1,1-2,2,2,2,0,0,1,2-2m0-2a4,4,0,1,0,4,4A4,4,0,0,0,13.38,24.38Z"/><line class="d" x1="20.38" y1="15.38" x2="14.38" y2="26.38"/><path class="c" d="M21.38,11.38a2,2,0,1,1-2,2,2,2,0,0,1,2-2m0-2a4,4,0,1,0,4,4A4,4,0,0,0,21.38,9.38Z"/><line class="d" x1="23.38" y1="15.38" x2="31.38" y2="22.38"/><path class="c" d="M33.38,22.38a2,2,0,1,1-2,2,2,2,0,0,1,2-2m0-2a4,4,0,1,0,4,4A4,4,0,0,0,33.38,20.38Z"/><line class="d" x1="35.59" y1="22.38" x2="45.88" y2="8.46"/><path class="c" d="M47.38,4.21a2,2,0,1,1-2,2,2,2,0,0,1,2-2m0-2a4,4,0,1,0,4,4A4,4,0,0,0,47.38,2.21Z"/></svg>