<svg xmlns="http://www.w3.org/2000/svg" width="300" height="300" viewBox="0 0 300 300"><defs><style>.a{fill:#fff;}</style></defs><title>share</title><path class="a" d="M194.73,232.41l-99-49.51c-11.88,14.15-26.85,21.62-45.43,20.58a51.5,51.5,0,0,1-36-17,53.53,53.53,0,0,1,1.93-74.87c21-20.35,57.18-21.62,79.56,5.53l99-49.51c-4.13-15.49-1.85-30,6.77-43.29A51.89,51.89,0,0,1,231.3,2.22a53.56,53.56,0,0,1,45,95.83c-20.84,14.08-51.62,13.07-72.09-11.54l-99.16,49.58a47.13,47.13,0,0,1-.09,27.85l99.25,49.65c11.35-13.58,25.72-21,43.65-20.65A51.94,51.94,0,0,1,281.48,206,53.57,53.57,0,0,1,228,296.79C206.21,289,186.8,263.89,194.73,232.41ZM246.51,21.49a32.14,32.14,0,1,0,32,32.24A32.16,32.16,0,0,0,246.51,21.49Zm0,192.85a32.13,32.13,0,1,0,32.08,31.85A32.13,32.13,0,0,0,246.47,214.34Zm-225-64.22a32.19,32.19,0,0,0,32.2,32.06c17.33,0,32-14.35,32.07-31.53a32.14,32.14,0,1,0-64.26-.53Z"/></svg>