<svg xmlns="http://www.w3.org/2000/svg" width="64.6" height="58.6" viewBox="0 0 64.6 58.6"><defs><style>.a,.c,.d{fill:#fff;}.a,.b,.c,.d,.e{stroke:#fff;stroke-miterlimit:10;}.a{stroke-width:0.6px;}.b,.e{fill:none;}.b{stroke-width:2.6px;}.c{stroke-width:2px;}.d{stroke-width:0.5px;}.e{stroke-width:2.5px;}</style></defs><title>ux</title><path class="a" d="M62.38,2.38v54h-60v-54h60m.92-2H1.46A1.08,1.08,0,0,0,.38,1.45V57.29a1.08,1.08,0,0,0,1.08,1.08H63.29a1.08,1.08,0,0,0,1.08-1.08h0V1.45A1.08,1.08,0,0,0,63.29.38Z" transform="translate(-0.07 -0.07)"/><line class="b" x1="1.3" y1="15.3" x2="62.3" y2="15.3"/><circle class="c" cx="8.8" cy="8.8" r="1"/><circle class="c" cx="14.8" cy="8.8" r="1"/><circle class="c" cx="20.8" cy="8.8" r="1"/><path class="d" d="M51.38,28.38v16h-13v-16h13m.25-2H38.13a1.75,1.75,0,0,0-1.75,1.75v16.5a1.75,1.75,0,0,0,1.75,1.75h13.5a1.75,1.75,0,0,0,1.75-1.75V28.13A1.75,1.75,0,0,0,51.63,26.38Z" transform="translate(-0.07 -0.07)"/><line class="e" x1="10.3" y1="29.3" x2="29.3" y2="29.3"/><line class="e" x1="10.3" y1="36.3" x2="29.3" y2="36.3"/><line class="e" x1="10.3" y1="43.3" x2="29.3" y2="43.3"/></svg>