<svg xmlns="http://www.w3.org/2000/svg" width="223" height="105.07" viewBox="0 0 223 105.07"><defs><style>.a{fill:none;stroke:#fff;stroke-miterlimit:10;stroke-width:8px;}</style></defs><title>web-vr</title><circle class="a" cx="150.42" cy="53.04" r="18"/><circle class="a" cx="72.58" cy="53.04" r="18"/><path class="a" d="M184.83,4H38.17A13.58,13.58,0,0,0,24.5,17.41V87.66a13.58,13.58,0,0,0,13.67,13.41H85.54a1.44,1.44,0,0,0,1.31-.83l6-12.91,7.61-16.46a12.26,12.26,0,0,1,22.15,0l7.61,16.46,6,12.91a1.44,1.44,0,0,0,1.31.83H184.9a13.58,13.58,0,0,0,13.67-13.41V17.41A13.58,13.58,0,0,0,184.83,4Z"/><path class="a" d="M24,28.61H8.67C6.14,28.57,4,30.89,4,33.8V62.28c.05,2.91,2.14,5.22,4.67,5.18H24Z"/><path class="a" d="M214.33,28.61H199V67.47h15.33c2.53,0,4.62-2.27,4.67-5.18V33.8C219,30.89,216.86,28.57,214.33,28.61Z"/></svg>